<svg id="flat" height="512" viewBox="0 0 512 512" width="512" xmlns="http://www.w3.org/2000/svg"><path d="m256 400h200v32h-200z" fill="#bdd1f2"/><path d="m64 248h192v152h-192z" fill="#4976f2"/><path d="m136 80h352v232h-352z" fill="#548aff"/><path d="m24 400h272a0 0 0 0 1 0 0 32 32 0 0 1 -32 32h-208a32 32 0 0 1 -32-32 0 0 0 0 1 0 0z" fill="#e0edff"/><path d="m136 400 8 8h32l8-8z" fill="#bdd1f2"/><path d="m424 312h32v88h-32z" fill="#d1e4ff"/><path d="m360 312h64v88h-64z" fill="#e0edff"/><path d="m136 80h352v48h-352z" fill="#7dafff"/><g fill="#4976f2"><path d="m160 152h24v16h-24z"/><path d="m208 152h56v16h-56z"/><path d="m280 152h24v16h-24z"/><path d="m160 192h24v16h-24z"/><path d="m208 192h32v16h-32z"/><path d="m256 192h48v16h-48z"/><path d="m160 232h24v16h-24z"/><path d="m208 232h96v16h-96z"/><path d="m160 272h24v16h-24z"/><path d="m208 272h32v16h-32z"/><path d="m256 272h48v16h-48z"/></g><path d="m354.34277 245.65674-24-24a8 8 0 0 1 0-11.31348l24-24 11.31446 11.31348-18.34375 18.34326 18.34375 18.34326z" fill="#7dafff"/><path d="m429.65723 245.65674-11.31446-11.31348 18.34375-18.34326-18.34375-18.34326 11.31446-11.31348 24 24a8 8 0 0 1 0 11.31348z" fill="#7dafff"/><path d="m341.404 208h101.193v16.001h-101.193z" fill="#7dafff" transform="matrix(.316 -.949 .949 .316 63.129 519.585)"/><circle cx="160" cy="104" fill="#f5714f" r="8"/><circle cx="184" cy="104" fill="#ffc431" r="8"/><circle cx="208" cy="104" fill="#3cde8d" r="8"/><path d="m392 344a8 8 0 0 1 -8-8v-24h16v24a8 8 0 0 1 -8 8z" fill="#b2c6eb"/></svg>