<svg id="flat" height="512" viewBox="0 0 512 512" width="512" xmlns="http://www.w3.org/2000/svg"><path d="m456 72a32 32 0 0 1 32 32v352a32 32 0 0 1 -32 32h-288v-384a32 32 0 0 1 32-32z" fill="#b1712c"/><path d="m200 104h256v352h-256z" fill="#d1e4ff"/><rect fill="#548aff" height="272" rx="32" width="224" x="24" y="216"/><path d="m192 304h-112l-24-24v-32h160v32z" fill="#3cde8d"/><path d="m144 272h16v16h-16z" fill="#02c26a"/><path d="m168 272h16v16h-16z" fill="#02c26a"/><path d="m56 336h160v120h-160z" fill="#7dafff"/><path d="m216 368h-32v-32h-16v32h-24v-32h-16v32h-24v-32h-16v32h-32v16h32v24h-32v16h32v32h16v-32h24v32h16v-32h24v32h16v-72h32zm-112 40v-24h24v24zm64 0h-24v-24h24z" fill="#639aff"/><path d="m384 128h-112l-24-56h160z" fill="#ffc431"/><path d="m296 72 10.94036-32.82108a22.1988 22.1988 0 0 1 21.05964-15.17892 22.1988 22.1988 0 0 1 21.05962 15.17892l10.94038 32.82108z" fill="#ffb401"/><circle cx="328" cy="48" fill="#ffa100" r="8"/><path d="m424 152h-184v16h64v72h-32v16h32v16h-32v16h32v16h-32v16h32v16h-32v16h32v16h-32v16h32v16h-32v16h152a7.99977 7.99977 0 0 0 8-8v-248a7.99977 7.99977 0 0 0 -8-8zm-8 16v32h-96v-32zm-40 168v-16h40v16zm40 16v16h-40v-16zm-40-48v-16h40v16zm0-32v-16h40v16zm0-32v-24h40v24zm-56-24h40v24h-40zm0 40h40v16h-40zm0 32h40v16h-40zm0 32h40v16h-40zm0 32h40v16h-40zm0 32h40v16h-40zm56 16v-16h40v16z" fill="#bdd1f2"/></svg>