<svg id="flat" height="512" viewBox="0 0 512 512" width="512" xmlns="http://www.w3.org/2000/svg"><path d="m24 376h464v40h-464z" fill="#c78640"/><path d="m48 96h424v280h-424z" fill="#548aff"/><path d="m368 336h72v40h-72z" fill="#b1712c"/><path d="m339.90234 153.0166a7.99722 7.99722 0 0 0 -8.09472.16992l-208 128a8.0001 8.0001 0 0 0 4.19238 14.81348h208a8.00039 8.00039 0 0 0 8-8v-128a7.99819 7.99819 0 0 0 -4.09766-6.9834zm-43.90234 102.9834v24h-94.70874a33.458 33.458 0 0 0 -8.656-22.38184l106.762-65.69995a36.66772 36.66772 0 0 0 28.60274 16.01636v40.06543h-24a8.00039 8.00039 0 0 0 -8 8zm32-64.09351a20.76856 20.76856 0 0 1 -14.94116-8.3955l14.94116-9.19458zm-149.46387 74.38794a17.20833 17.20833 0 0 1 6.75415 13.70557h-29.02563zm133.46387 13.70557v-16h16v16z" fill="#91c0ff"/><g fill="#7dafff"><path d="m400 168v-16h-32v16h8v112h-8v16h8 16 8v-16h-8v-112z"/><path d="m328 320h-200v-8h-16v32h16v-8h200v8h16v-32h-16z"/><path d="m147.931 251.543-5.631-8.392 161.255-97.532 5.607 8.357 13.287-8.914-19.805-29.519-13.288 8.914 5.274 7.86-161.255 97.532-5.25-7.825-13.287 8.914 19.806 29.519z"/></g></svg>