<svg id="flat" height="512" viewBox="0 0 512 512" width="512" xmlns="http://www.w3.org/2000/svg"><path d="m64 64h400v280h-400z" fill="#548aff"/><path d="m270.059 175.999h67.882v16.001h-67.882z" fill="#91c0ff" transform="matrix(.707 -.707 .707 .707 -41.068 268.853)"/><path d="m40 344h448v40h-448z" fill="#d1e4ff"/><path d="m296 208.97a16.97809 16.97809 0 0 1 -4.97 12l-39.72 39.72a38.62742 38.62742 0 0 1 -54.62012 0l-20.68988-20.69v208l24 24v16h-160v-16l24-24v-104h-16a24.00619 24.00619 0 0 1 -24-24v-112a40.00166 40.00166 0 0 1 40-40h111.28a40.01175 40.01175 0 0 1 35.78 22.10986l20.94 41.89014 35.03-35.03a16.97 16.97 0 0 1 28.97 12z" fill="#ffceb6"/><path d="m120 488h-80v-16l24-24h56z" fill="#c78640"/><path d="m120 448h56l24 24v16h-80z" fill="#c78640"/><path d="m64 288h112v160h-112z" fill="#718799"/><path d="m276 236-24.68994 24.68994a38.62742 38.62742 0 0 1 -54.62012 0l-20.68994-20.68994v48h-112v16h-40v-96a40.00166 40.00166 0 0 1 40-40h111.28a40.01175 40.01175 0 0 1 35.78 22.10986l20.94 41.89014 20-20z" fill="#7dafff"/><path d="m141.333 176-13.333 40 8 32-16 16-16-16 8-32-13.333-40z" fill="#ffc431"/><path d="m168 168v48l-48-38.4-48 38.4v-48z" fill="#639aff"/><path d="m128 224h-16a8 8 0 0 1 0-16h16a8 8 0 0 1 0 16z" fill="#ffb401"/><path d="m96 136h48a0 0 0 0 1 0 0v24a24 24 0 0 1 -24 24 24 24 0 0 1 -24-24v-24a0 0 0 0 1 0 0z" fill="#ffceb6"/><path d="m96 136v-16l19.359-12.906a18.42223 18.42223 0 0 1 10.21879-3.094 18.42218 18.42218 0 0 1 18.42221 18.42219v13.57781z" fill="#a36522"/><path d="m64 240h16v48h-16z" fill="#639aff"/><path d="m112 448h16v40h-16z" fill="#b1712c"/><path d="m112 320h16v128h-16z" fill="#62798c"/><path d="m40 24h448v40h-448z" fill="#d1e4ff"/><path d="m384 112h40v200h-40z" fill="#ffc431"/><path d="m344 192h40v120h-40z" fill="#ffb401"/><path d="m304 248h40v64h-40z" fill="#ffa100"/><path d="m208 304h24v16h-24z" fill="#91c0ff"/><path d="m248 304h176v16h-176z" fill="#91c0ff"/><path d="m280 384h32v56h-32z" fill="#bdd1f2"/><g fill="#d1e4ff"><path d="m280 440-24 48h-24l24-72h24z"/><path d="m312 440 24 48h24l-24-72h-24z"/></g></svg>