<svg id="flat" height="512" viewBox="0 0 512 512" width="512" xmlns="http://www.w3.org/2000/svg"><path d="m336 328h56v112h-56z" fill="#ffa100"/><path d="m392 208 48 24 16-24-48-32z" fill="#ffa100"/><path d="m376 208h32v48h-32z" fill="#ffa100"/><path d="m416 208-16 16-40-8-104-104-8-32-32-32 24-24 32 32 32 8 104 104z" fill="#ffc431"/><path d="m280 168h-24a48 48 0 0 0 -48 48v88h56v-88h16z" fill="#ffc431"/><path d="m176 296h160v192h-160z" fill="#bbedf2"/><path d="m176 368h160v120h-160z" fill="#7dafff"/><path d="m200 488h-176l56-128v-256h64v256z" fill="#bbedf2"/><path d="m200 488h-176l38.5-88h99z" fill="#548aff"/><path d="m72 416h16v16h-16z" fill="#7dafff"/><path d="m96 440h16v16h-16z" fill="#7dafff"/><path d="m128 424h16v16h-16z" fill="#7dafff"/><path d="m56 456h16v16h-16z" fill="#7dafff"/><path d="m144 448h16v16h-16z" fill="#7dafff"/><path d="m200 408h16v16h-16z" fill="#91c0ff"/><path d="m232 392h16v16h-16z" fill="#91c0ff"/><path d="m248 416h16v16h-16z" fill="#91c0ff"/><rect fill="#cdf4f7" height="32" rx="16" width="96" x="64" y="72"/><g fill="#8be0e8"><path d="m104 128h40v16h-40z"/><path d="m120 160h24v16h-24z"/><path d="m120 192h24v16h-24z"/><path d="m104 224h40v16h-40z"/><path d="m120 256h24v16h-24z"/><path d="m120 288h24v16h-24z"/><path d="m104 320h40v16h-40z"/><path d="m232 296 12.42229 24.84459a12.94427 12.94427 0 0 0 11.57771 7.15541 12.94427 12.94427 0 0 0 11.5777-7.15541l12.4223-24.84459z"/></g><path d="m272 448h16v16h-16z" fill="#91c0ff"/><path d="m296 416h16v16h-16z" fill="#91c0ff"/><path d="m280 392h16v16h-16z" fill="#91c0ff"/><path d="m336 318 120-30 8 32-128 32z" fill="#ffd873"/><path d="m336 440h120v48h-120z" fill="#ffc431"/><path d="m416 360h72v24h-72z" fill="#ffd873"/><circle cx="288" cy="168" fill="#ffd873" r="32"/><circle cx="280" cy="216" fill="#ffd873" r="16"/><circle cx="288" cy="168" fill="#ffb401" r="8"/><path d="m304 64-48 48-8-32-32-32 24-24 32 32z" fill="#ffb401"/><path d="m416 208-16 16-40-8 48-48z" fill="#ffd873"/><path d="m432 440 40-56h-32l-16 24h-32v32z" fill="#ffb401"/></svg>